<?xml version="1.0" encoding="UTF-8"?>
<svg version="1.1" xmlns="http://www.w3.org/2000/svg" width="1800" height="1800">
<path d="M0 0 C44.88 0 89.76 0 136 0 C136 222.75 136 445.5 136 675 C394.72 675 653.44 675 920 675 C920 601.08 920 527.16 920 451 C1068.83 451 1217.66 451 1371 451 C1371.020625 494.35375 1371.04125 537.7075 1371.0625 582.375 C1371.071604 596.08724121 1371.08070801 609.79948242 1371.09008789 623.92724609 C1371.09460449 640.61254883 1371.09460449 640.61254883 1371.09544373 648.41226196 C1371.0963791 653.88467845 1371.10005922 659.35708512 1371.10557556 664.82949829 C1371.11192147 671.1341429 1371.11484052 677.43877775 1371.11344495 683.74342559 C1371.11284009 686.97150611 1371.11437825 690.19956024 1371.11921513 693.42763782 C1371.12414558 696.87677469 1371.12300597 700.3258559 1371.12025452 703.7749939 C1371.12316718 704.79219828 1371.12607985 705.80940266 1371.12908077 706.85743141 C1371.1270899 707.77783588 1371.12509903 708.69824036 1371.12304783 709.64653587 C1371.12342755 710.44470801 1371.12380727 711.24288014 1371.1241985 712.06523931 C1371 714 1371 714 1370 716 C1369.34 716 1368.68 716 1368 716 C1368 720.62 1368 725.24 1368 730 C1367.34 730 1366.68 730 1366 730 C1366 734.95 1366 739.9 1366 745 C1365.34 745 1364.68 745 1364 745 C1364 747.64 1364 750.28 1364 753 C1363.34 753 1362.68 753 1362 753 C1362 755.64 1362 758.28 1362 761 C1361.34 761 1360.68 761 1360 761 C1360 763.64 1360 766.28 1360 769 C1359.34 769 1358.68 769 1358 769 C1358 771.64 1358 774.28 1358 777 C1357.34 777 1356.68 777 1356 777 C1356 778.98 1356 780.96 1356 783 C1355.34 783 1354.68 783 1354 783 C1354.061875 783.845625 1354.12375 784.69125 1354.1875 785.5625 C1354.00633209 788.88391171 1353.272319 791.01074069 1351.8671875 793.98828125 C1350.19887587 797.85846363 1349.14868686 801.9510825 1348 806 C1347.34 806 1346.68 806 1346 806 C1346 807.98 1346 809.96 1346 812 C1345.34 812 1344.68 812 1344 812 C1344 813.32 1344 814.64 1344 816 C1343.34 816 1342.68 816 1342 816 C1342 817.32 1342 818.64 1342 820 C1341.34 820 1340.68 820 1340 820 C1340 821.32 1340 822.64 1340 824 C1339.34 824 1338.68 824 1338 824 C1338 825.32 1338 826.64 1338 828 C1337.34 828 1336.68 828 1336 828 C1336 829.32 1336 830.64 1336 832 C1335.34 832 1334.68 832 1334 832 C1334 833.32 1334 834.64 1334 836 C1333.34 836 1332.68 836 1332 836 C1331.896875 836.70125 1331.79375 837.4025 1331.6875 838.125 C1330.90640997 841.39137647 1329.57941257 844.0471852 1328 847 C1327.34 847 1326.68 847 1326 847 C1326 848.32 1326 849.64 1326 851 C1325.34 851 1324.68 851 1324 851 C1323.34 852.98 1322.68 854.96 1322 857 C1321.34 857 1320.68 857 1320 857 C1320 858.32 1320 859.64 1320 861 C1319.01 861 1318.02 861 1317 861 C1317 862.32 1317 863.64 1317 865 C1316.34 865 1315.68 865 1315 865 C1315 865.66 1315 866.32 1315 867 C1314.34 867 1313.68 867 1313 867 C1313 868.32 1313 869.64 1313 871 C1312.34 871 1311.68 871 1311 871 C1311 871.66 1311 872.32 1311 873 C1310.34 873 1309.68 873 1309 873 C1309 873.66 1309 874.32 1309 875 C1308.34 875 1307.68 875 1307 875 C1307 876.32 1307 877.64 1307 879 C1306.34 879 1305.68 879 1305 879 C1305 879.66 1305 880.32 1305 881 C1304.34 881 1303.68 881 1303 881 C1303 881.66 1303 882.32 1303 883 C1302.34 883 1301.68 883 1301 883 C1301 884.32 1301 885.64 1301 887 C1300.34 887 1299.68 887 1299 887 C1299 887.99 1299 888.98 1299 890 C1298.34 890 1297.68 890 1297 890 C1297 890.66 1297 891.32 1297 892 C1296.34 892 1295.68 892 1295 892 C1295 892.99 1295 893.98 1295 895 C1294.34 895 1293.68 895 1293 895 C1292.71125 895.598125 1292.4225 896.19625 1292.125 896.8125 C1291 899 1291 899 1289 902 C1288.34 902 1287.68 902 1287 902 C1287 902.66 1287 903.32 1287 904 C1286.34 904 1285.68 904 1285 904 C1285 904.66 1285 905.32 1285 906 C1284.34 906 1283.68 906 1283 906 C1283 906.66 1283 907.32 1283 908 C1282.34 908 1281.68 908 1281 908 C1281 908.66 1281 909.32 1281 910 C1280.34 910 1279.68 910 1279 910 C1279 910.66 1279 911.32 1279 912 C1278.34 912 1277.68 912 1277 912 C1277 912.66 1277 913.32 1277 914 C1276.34 914 1275.68 914 1275 914 C1275 914.66 1275 915.32 1275 916 C1274.34 916 1273.68 916 1273 916 C1273 916.66 1273 917.32 1273 918 C1272.34 918 1271.68 918 1271 918 C1271 918.66 1271 919.32 1271 920 C1270.01 920 1269.02 920 1268 920 C1268 920.66 1268 921.32 1268 922 C1267.34 922 1266.68 922 1266 922 C1266 922.66 1266 923.32 1266 924 C1265.34 924 1264.68 924 1264 924 C1264 924.66 1264 925.32 1264 926 C1263.34 926 1262.68 926 1262 926 C1262 926.66 1262 927.32 1262 928 C1261.34 928 1260.68 928 1260 928 C1260 928.66 1260 929.32 1260 930 C1259.34 930 1258.68 930 1258 930 C1258 930.66 1258 931.32 1258 932 C1257.34 932 1256.68 932 1256 932 C1256 932.66 1256 933.32 1256 934 C1255.34 934 1254.68 934 1254 934 C1254 934.66 1254 935.32 1254 936 C1253.34 936 1252.68 936 1252 936 C1252 936.66 1252 937.32 1252 938 C1250.68 938.33 1249.36 938.66 1248 939 C1248 939.66 1248 940.32 1248 941 C1247.34 941 1246.68 941 1246 941 C1246 941.66 1246 942.32 1246 943 C1245.34 943 1244.68 943 1244 943 C1244 943.66 1244 944.32 1244 945 C1242.02 945.66 1240.04 946.32 1238 947 C1238 947.66 1238 948.32 1238 949 C1237.34 949 1236.68 949 1236 949 C1236 949.66 1236 950.32 1236 951 C1233 953 1233 953 1230 953 C1230 953.66 1230 954.32 1230 955 C1229.34 955 1228.68 955 1228 955 C1228 955.66 1228 956.32 1228 957 C1225 959 1225 959 1222 959 C1222 959.66 1222 960.32 1222 961 C1220.35 961 1218.7 961 1217 961 C1217 961.66 1217 962.32 1217 963 C1216.34 963 1215.68 963 1215 963 C1215 963.66 1215 964.32 1215 965 C1213.68 965 1212.36 965 1211 965 C1211 965.66 1211 966.32 1211 967 C1209.68 967 1208.36 967 1207 967 C1207 967.66 1207 968.32 1207 969 C1206.34 969 1205.68 969 1205 969 C1205 969.66 1205 970.32 1205 971 C1203.68 971 1202.36 971 1201 971 C1201 971.66 1201 972.32 1201 973 C1199.68 973 1198.36 973 1197 973 C1197 973.66 1197 974.32 1197 975 C1196.34 975 1195.68 975 1195 975 C1195 975.66 1195 976.32 1195 977 C1193.68 977 1192.36 977 1191 977 C1191 977.66 1191 978.32 1191 979 C1189.42032193 979.67528223 1187.83608097 980.33989694 1186.25 981 C1185.36828125 981.37125 1184.4865625 981.7425 1183.578125 982.125 C1181 983 1181 983 1177 983 C1177 983.66 1177 984.32 1177 985 C1175.68 985 1174.36 985 1173 985 C1173 985.66 1173 986.32 1173 987 C1171.35 987 1169.7 987 1168 987 C1168 987.99 1168 988.98 1168 990 C1166.68 990 1165.36 990 1164 990 C1164 990.66 1164 991.32 1164 992 C1162.02 992 1160.04 992 1158 992 C1158 992.66 1158 993.32 1158 994 C1156.02 994 1154.04 994 1152 994 C1152 994.66 1152 995.32 1152 996 C1148.49223216 997.60355101 1145.85645121 998.22036864 1142 998 C1142 998.66 1142 999.32 1142 1000 C1140.02 1000 1138.04 1000 1136 1000 C1136 1000.66 1136 1001.32 1136 1002 C1133.36 1002 1130.72 1002 1128 1002 C1128 1002.66 1128 1003.32 1128 1004 C1125.94921875 1004.22786458 1123.8984375 1004.45572917 1121.84765625 1004.68359375 C1119.98859771 1004.81886614 1119.98859771 1004.81886614 1119 1006 C1116.32941149 1006.14115161 1113.67567762 1006.04247107 1111 1006 C1111 1006.66 1111 1007.32 1111 1008 C1108.36 1008 1105.72 1008 1103 1008 C1103 1008.66 1103 1009.32 1103 1010 C1102.21753906 1010.06058594 1101.43507813 1010.12117188 1100.62890625 1010.18359375 C1099.61699219 1010.26738281 1098.60507813 1010.35117188 1097.5625 1010.4375 C1096.55316406 1010.51871094 1095.54382812 1010.59992187 1094.50390625 1010.68359375 C1092.06359221 1010.73211468 1092.06359221 1010.73211468 1091 1012 C1087.89957227 1012.32446337 1084.7979275 1012.51334441 1081.6875 1012.71875 C1079.08403248 1012.70607799 1079.08403248 1012.70607799 1078 1014 C1075.59676997 1014.09958243 1073.22225157 1014.13329676 1070.81845862 1014.12534916 C1069.67006746 1014.12745264 1069.67006746 1014.12745264 1068.49847648 1014.12959861 C1065.89490272 1014.13311935 1063.29138678 1014.12942106 1060.68781376 1014.12584114 C1058.80957703 1014.12688285 1056.9313405 1014.12836303 1055.05310443 1014.13024551 C1049.84275326 1014.13417268 1044.63242038 1014.1317924 1039.42206947 1014.12846755 C1033.77219764 1014.12594766 1028.12232877 1014.12918405 1022.47245735 1014.13171089 C1012.55409732 1014.13533626 1002.63574272 1014.13520465 992.71738243 1014.13266373 C982.07008394 1014.12994342 971.42278828 1014.12932865 960.77548981 1014.13140106 C960.10411721 1014.13153023 959.43274462 1014.13165941 958.74102739 1014.13179249 C956.00683184 1014.13232574 953.27263629 1014.13287444 950.53844075 1014.13344277 C925.04385636 1014.13873835 899.54927411 1014.13908805 874.05468941 1014.13629532 C873.29850355 1014.13621252 872.54231769 1014.13612973 871.76321712 1014.13604442 C871.00582978 1014.13596149 870.24844245 1014.13587856 869.46810399 1014.13579312 C846.42227249 1014.13327301 823.37644188 1014.13261711 800.33061028 1014.13381577 C798.78918723 1014.13389324 797.24776418 1014.1339704 795.70634114 1014.13404724 C789.51246594 1014.13435768 783.31859075 1014.13467635 777.12471556 1014.135007 C759.80864541 1014.13592415 742.49257526 1014.13649465 725.17650509 1014.13679314 C724.38787549 1014.13680678 723.5992459 1014.13682043 722.78671844 1014.13683449 C697.64573565 1014.13724396 672.50475317 1014.1361159 647.36377048 1014.13394356 C646.5479715 1014.13387331 645.73217251 1014.13380306 644.89165234 1014.13373068 C631.64243089 1014.13258564 618.39320944 1014.13136622 605.143988 1014.13014051 C552.59395664 1014.12528416 500.04392783 1014.12550912 447.49389648 1014.13037109 C434.25265535 1014.13159222 421.01141421 1014.13280325 407.77017307 1014.13394356 C406.95493061 1014.13401401 406.13968814 1014.13408445 405.29974135 1014.13415704 C380.18659021 1014.13631232 355.07343928 1014.13722767 329.96028805 1014.13679314 C329.17221929 1014.13677955 328.38415053 1014.13676597 327.57220089 1014.13675197 C310.27496585 1014.13643953 292.97773082 1014.13580597 275.6804958 1014.13488263 C269.49174127 1014.13455347 263.30298674 1014.13424039 257.11423222 1014.13393192 C255.57454135 1014.13385453 254.03485048 1014.1337758 252.49515962 1014.13369573 C229.45438181 1014.13250072 206.41360499 1014.13352131 183.37282731 1014.13604442 C182.61672425 1014.13612722 181.86062119 1014.13621001 181.08160591 1014.13629532 C179.94953093 1014.13641934 179.94953093 1014.13641934 178.79458576 1014.13654587 C153.37457267 1014.13930028 127.95456214 1014.13829726 102.53454942 1014.13301457 C99.8083367 1014.13246219 97.08212398 1014.13192549 94.35591125 1014.13140106 C93.68682432 1014.13127086 93.01773739 1014.13114065 92.3283751 1014.1310065 C81.06040152 1014.1289089 69.79243064 1014.13077333 58.52445724 1014.13366075 C48.74330777 1014.13589165 38.9621632 1014.13452853 29.18101446 1014.13015598 C23.59612209 1014.12776162 18.01124184 1014.12699584 12.42634983 1014.13056196 C7.3563975 1014.1337665 2.28646818 1014.1324576 -2.78348243 1014.1273813 C-4.61654168 1014.12636521 -6.44960279 1014.12706331 -8.28266058 1014.12958724 C-10.75283884 1014.1327499 -13.22293514 1014.12986544 -15.69310945 1014.12534916 C-16.41381143 1014.12773991 -17.1345134 1014.13013065 -17.87705482 1014.13259384 C-22.77168861 1014.11415569 -22.77168861 1014.11415569 -25 1013 C-27.0374763 1012.77141886 -29.08040303 1012.58975722 -31.125 1012.4375 C-32.22070312 1012.35371094 -33.31640625 1012.26992187 -34.4453125 1012.18359375 C-35.28835938 1012.12300781 -36.13140625 1012.06242187 -37 1012 C-37 1011.34 -37 1010.68 -37 1010 C-37.85464844 1010.01160156 -38.70929688 1010.02320313 -39.58984375 1010.03515625 C-41.24693359 1010.04869141 -41.24693359 1010.04869141 -42.9375 1010.0625 C-44.03964844 1010.07410156 -45.14179688 1010.08570313 -46.27734375 1010.09765625 C-49 1010 -49 1010 -50 1009 C-51.34747084 1008.76924918 -52.70377565 1008.58846937 -54.0625 1008.4375 C-55.361875 1008.293125 -56.66125 1008.14875 -58 1008 C-58 1007.34 -58 1006.68 -58 1006 C-60.64 1006 -63.28 1006 -66 1006 C-66 1005.34 -66 1004.68 -66 1004 C-68.64 1004 -71.28 1004 -74 1004 C-74 1003.34 -74 1002.68 -74 1002 C-76.64 1002 -79.28 1002 -82 1002 C-82 1001.34 -82 1000.68 -82 1000 C-83.051875 1000.0928125 -83.051875 1000.0928125 -84.125 1000.1875 C-87.70675016 999.9539076 -89.7987265 998.63083744 -93 997 C-94.53332582 996.51449254 -96.07621208 996.05866062 -97.625 995.625 C-103.62644448 993.91422238 -109.28405688 991.48476565 -115 989 C-115 988.34 -115 987.68 -115 987 C-116.32 987 -117.64 987 -119 987 C-119 986.34 -119 985.68 -119 985 C-120.32 985 -121.64 985 -123 985 C-123 984.34 -123 983.68 -123 983 C-124.32 983 -125.64 983 -127 983 C-127 982.34 -127 981.68 -127 981 C-128.32 981 -129.64 981 -131 981 C-131 980.34 -131 979.68 -131 979 C-132.32 979 -133.64 979 -135 979 C-135 978.34 -135 977.68 -135 977 C-136.65 977 -138.3 977 -140 977 C-140 976.34 -140 975.68 -140 975 C-141.32 975 -142.64 975 -144 975 C-144 974.34 -144 973.68 -144 973 C-144.61875 972.855625 -145.2375 972.71125 -145.875 972.5625 C-148 972 -148 972 -150 971 C-150 970.34 -150 969.68 -150 969 C-151.32 969 -152.64 969 -154 969 C-154 968.34 -154 967.68 -154 967 C-155.98 966.34 -157.96 965.68 -160 965 C-160 964.34 -160 963.68 -160 963 C-161.32 963 -162.64 963 -164 963 C-164 962.34 -164 961.68 -164 961 C-164.66 961 -165.32 961 -166 961 C-166 960.34 -166 959.68 -166 959 C-167.32 959 -168.64 959 -170 959 C-170 958.34 -170 957.68 -170 957 C-170.66 957 -171.32 957 -172 957 C-172 956.34 -172 955.68 -172 955 C-173.32 955 -174.64 955 -176 955 C-176 954.34 -176 953.68 -176 953 C-176.66 953 -177.32 953 -178 953 C-178 952.34 -178 951.68 -178 951 C-178.66 951 -179.32 951 -180 951 C-180 950.34 -180 949.68 -180 949 C-181.32 949 -182.64 949 -184 949 C-184 948.34 -184 947.68 -184 947 C-184.66 947 -185.32 947 -186 947 C-186 946.34 -186 945.68 -186 945 C-186.70125 944.773125 -187.4025 944.54625 -188.125 944.3125 C-191.74128535 942.66158712 -194.08769976 940.7091165 -197 938 C-197 937.34 -197 936.68 -197 936 C-197.66 936 -198.32 936 -199 936 C-199 935.34 -199 934.68 -199 934 C-199.66 934 -200.32 934 -201 934 C-201 933.34 -201 932.68 -201 932 C-201.66 932 -202.32 932 -203 932 C-203 931.34 -203 930.68 -203 930 C-203.66 930 -204.32 930 -205 930 C-205 929.34 -205 928.68 -205 928 C-205.66 928 -206.32 928 -207 928 C-207 927.34 -207 926.68 -207 926 C-207.66 926 -208.32 926 -209 926 C-209 925.34 -209 924.68 -209 924 C-209.61875 923.855625 -210.2375 923.71125 -210.875 923.5625 C-213 923 -213 923 -215 922 C-215 921.34 -215 920.68 -215 920 C-215.66 920 -216.32 920 -217 920 C-217 919.34 -217 918.68 -217 918 C-217.66 918 -218.32 918 -219 918 C-219 917.34 -219 916.68 -219 916 C-219.66 916 -220.32 916 -221 916 C-221 915.34 -221 914.68 -221 914 C-221.66 914 -222.32 914 -223 914 C-223 912.68 -223 911.36 -223 910 C-223.66 910 -224.32 910 -225 910 C-225 909.34 -225 908.68 -225 908 C-225.66 908 -226.32 908 -227 908 C-227 907.34 -227 906.68 -227 906 C-227.66 906 -228.32 906 -229 906 C-229 905.34 -229 904.68 -229 904 C-229.66 904 -230.32 904 -231 904 C-231 903.34 -231 902.68 -231 902 C-231.66 902 -232.32 902 -233 902 C-233 901.34 -233 900.68 -233 900 C-233.66 900 -234.32 900 -235 900 C-235 899.34 -235 898.68 -235 898 C-235.598125 897.731875 -236.19625 897.46375 -236.8125 897.1875 C-240.4587987 895.20808071 -241.71698039 893.75968421 -243.1875 889.8125 C-243.5896875 888.4203125 -243.5896875 888.4203125 -244 887 C-244.66 887 -245.32 887 -246 887 C-246 886.34 -246 885.68 -246 885 C-246.66 885 -247.32 885 -248 885 C-248 883.68 -248 882.36 -248 881 C-248.66 881 -249.32 881 -250 881 C-250 880.34 -250 879.68 -250 879 C-250.66 879 -251.32 879 -252 879 C-252 878.34 -252 877.68 -252 877 C-252.66 877 -253.32 877 -254 877 C-254 875.68 -254 874.36 -254 873 C-254.66 873 -255.32 873 -256 873 C-256 872.34 -256 871.68 -256 871 C-256.66 871 -257.32 871 -258 871 C-258 870.34 -258 869.68 -258 869 C-258.66 869 -259.32 869 -260 869 C-260 867.68 -260 866.36 -260 865 C-260.66 865 -261.32 865 -262 865 C-262 863.68 -262 862.36 -262 861 C-262.66 861 -263.32 861 -264 861 C-264 860.34 -264 859.68 -264 859 C-264.66 859 -265.32 859 -266 859 C-266 857.68 -266 856.36 -266 855 C-266.66 855 -267.32 855 -268 855 C-268 853.68 -268 852.36 -268 851 C-268.66 851 -269.32 851 -270 851 C-270 850.34 -270 849.68 -270 849 C-270.66 849 -271.32 849 -272 849 C-272 847.68 -272 846.36 -272 845 C-272.66 845 -273.32 845 -274 845 C-274 843.68 -274 842.36 -274 841 C-274.66 841 -275.32 841 -276 841 C-278 838 -278 838 -278 834 C-278.66 834 -279.32 834 -280 834 C-280 832.68 -280 831.36 -280 830 C-280.66 830 -281.32 830 -282 830 C-283.31626692 826.38026598 -284 823.90432869 -284 820 C-284.66 820 -285.32 820 -286 820 C-286 818.68 -286 817.36 -286 816 C-286.99 816 -287.98 816 -289 816 C-289 814.68 -289 813.36 -289 812 C-289.66 812 -290.32 812 -291 812 C-292.60355101 808.49223216 -293.22036864 805.85645121 -293 802 C-293.66 802 -294.32 802 -295 802 C-295 800.02 -295 798.04 -295 796 C-295.66 796 -296.32 796 -297 796 C-297 794.35 -297 792.7 -297 791 C-297.66 791 -298.32 791 -299 791 C-299 789.02 -299 787.04 -299 785 C-299.66 785 -300.32 785 -301 785 C-301 783.02 -301 781.04 -301 779 C-301.66 779 -302.32 779 -303 779 C-303 776.36 -303 773.72 -303 771 C-303.66 771 -304.32 771 -305 771 C-305 768.36 -305 765.72 -305 763 C-305.66 763 -306.32 763 -307 763 C-307 760.36 -307 757.72 -307 755 C-307.66 755 -308.32 755 -309 755 C-309 752.36 -309 749.72 -309 747 C-309.66 747 -310.32 747 -311 747 C-311 742.71 -311 738.42 -311 734 C-311.66 734 -312.32 734 -313 734 C-313 730.04 -313 726.08 -313 722 C-313.66 722 -314.32 722 -315 722 C-315.02505615 721.30849854 -315.0501123 720.61699707 -315.07592773 719.90454102 C-315.19152161 716.79032134 -315.31441242 713.67643211 -315.4375 710.5625 C-315.47681641 709.47388672 -315.51613281 708.38527344 -315.55664062 707.26367188 C-315.59853516 706.22919922 -315.64042969 705.19472656 -315.68359375 704.12890625 C-315.73858032 702.69140015 -315.73858032 702.69140015 -315.79467773 701.22485352 C-315.75834424 699.02861075 -315.75834424 699.02861075 -317 698 C-317.09873299 695.98983786 -317.12555697 693.97614072 -317.12584114 691.96355534 C-317.12729458 691.32310706 -317.12874802 690.68265878 -317.13024551 690.02280298 C-317.13393082 687.85014487 -317.13040746 685.67755581 -317.12698364 683.50489807 C-317.12813447 681.94216069 -317.12972173 680.37942358 -317.13171089 678.81668705 C-317.13590959 674.50160388 -317.13381109 670.18654264 -317.13072467 665.87145936 C-317.12847296 661.22585864 -317.13194905 656.58026183 -317.13470459 651.93466187 C-317.13916385 642.82543411 -317.1381851 633.71621456 -317.13529195 624.60698647 C-317.13303839 617.20666336 -317.13272519 609.80634256 -317.13381577 602.40601921 C-317.133969 601.35487024 -317.13412223 600.30372126 -317.13428011 599.22071929 C-317.13459982 597.08566928 -317.13492403 594.95061928 -317.1352527 592.81556927 C-317.13810798 572.76930506 -317.13481978 552.72304541 -317.12945233 532.67678194 C-317.1249849 515.45859127 -317.12575963 498.24040735 -317.13037109 481.0222168 C-317.13571712 461.05180896 -317.1378326 441.08140512 -317.13475883 421.11099666 C-317.13444026 418.98326329 -317.13412589 416.85552992 -317.13381577 414.72779655 C-317.13366149 413.68077518 -317.13350721 412.6337538 -317.13334826 411.5550045 C-317.13248315 404.16005189 -317.13394589 396.76510182 -317.13629532 389.37014961 C-317.13909386 380.36314273 -317.13835393 371.35614456 -317.13301457 362.34913868 C-317.1303782 357.74949885 -317.12937142 353.14987358 -317.13266373 348.55023384 C-317.13562803 344.34538122 -317.1340316 340.14055676 -317.12868617 335.93570673 C-317.12756256 334.40879351 -317.12815195 332.88187796 -317.13056196 331.35496623 C-317.13357194 329.29070487 -317.13051518 327.22654189 -317.12584114 325.1622858 C-317.12567879 324.01227528 -317.12551644 322.86226475 -317.12534916 321.67740542 C-317 319 -317 319 -316 317 C-315.85950588 315.34575414 -315.77430036 313.68661532 -315.71875 312.02734375 C-315.68136719 311.04572266 -315.64398438 310.06410156 -315.60546875 309.05273438 C-315.53502415 306.97200968 -315.46471215 304.89128048 -315.39453125 302.81054688 C-315.35714844 301.83021484 -315.31976563 300.84988281 -315.28125 299.83984375 C-315.25095703 298.93613037 -315.22066406 298.03241699 -315.18945312 297.10131836 C-315 295 -315 295 -314 294 C-313.76572222 291.98405418 -313.58663876 289.961526 -313.4375 287.9375 C-313.31181641 286.28041016 -313.31181641 286.28041016 -313.18359375 284.58984375 C-313.12300781 283.73519531 -313.06242187 282.88054687 -313 282 C-312.34 282 -311.68 282 -311 282 C-311.01160156 281.14535156 -311.02320313 280.29070312 -311.03515625 279.41015625 C-311.04417969 278.30542969 -311.05320312 277.20070313 -311.0625 276.0625 C-311.07410156 274.96035156 -311.08570313 273.85820313 -311.09765625 272.72265625 C-311 270 -311 270 -310 269 C-309.76924918 267.65252916 -309.58846937 266.29622435 -309.4375 264.9375 C-309.293125 263.638125 -309.14875 262.33875 -309 261 C-308.34 261 -307.68 261 -307 261 C-307 258.36 -307 255.72 -307 253 C-306.34 253 -305.68 253 -305 253 C-305 250.36 -305 247.72 -305 245 C-304.34 245 -303.68 245 -303 245 C-303 242.36 -303 239.72 -303 237 C-302.34 237 -301.68 237 -301 237 C-301.04125 236.278125 -301.0825 235.55625 -301.125 234.8125 C-300.99078695 231.79270631 -300.24829381 229.73064271 -299 227 C-298.34 227 -297.68 227 -297 227 C-297.061875 226.154375 -297.12375 225.30875 -297.1875 224.4375 C-297.01021012 221.18718548 -296.37302365 219.11433401 -294.98828125 216.20703125 C-293.16707775 212.13991671 -291.77278824 207.89265409 -290.28125 203.6953125 C-289.8584375 202.80585937 -289.435625 201.91640625 -289 201 C-288.01 200.67 -287.02 200.34 -286 200 C-286 198.68 -286 197.36 -286 196 C-285.34 196 -284.68 196 -284 196 C-284 194.68 -284 193.36 -284 192 C-283.34 192 -282.68 192 -282 192 C-282 190.68 -282 189.36 -282 188 C-281.34 188 -280.68 188 -280 188 C-280 186.68 -280 185.36 -280 184 C-279.34 184 -278.68 184 -278 184 C-278 182.68 -278 181.36 -278 180 C-277.34 180 -276.68 180 -276 180 C-276 178.35 -276 176.7 -276 175 C-275.34 175 -274.68 175 -274 175 C-274 174.01 -274 173.02 -274 172 C-273.34 172 -272.68 172 -272 172 C-272 171.01 -272 170.02 -272 169 C-271.34 169 -270.68 169 -270 169 C-270 167.68 -270 166.36 -270 165 C-269.34 165 -268.68 165 -268 165 C-267.855625 164.38125 -267.71125 163.7625 -267.5625 163.125 C-267 161 -267 161 -266 159 C-265.34 159 -264.68 159 -264 159 C-264 157.68 -264 156.36 -264 155 C-263.34 155 -262.68 155 -262 155 C-262 153.68 -262 152.36 -262 151 C-261.34 151 -260.68 151 -260 151 C-260 150.34 -260 149.68 -260 149 C-259.34 149 -258.68 149 -258 149 C-257.01 146.03 -257.01 146.03 -256 143 C-255.34 143 -254.68 143 -254 143 C-254 142.34 -254 141.68 -254 141 C-253.34 141 -252.68 141 -252 141 C-251.01 138.03 -251.01 138.03 -250 135 C-249.34 135 -248.68 135 -248 135 C-248 134.34 -248 133.68 -248 133 C-247.34 133 -246.68 133 -246 133 C-245.855625 132.38125 -245.71125 131.7625 -245.5625 131.125 C-245 129 -245 129 -244 127 C-243.34 127 -242.68 127 -242 127 C-241.5978125 126.1028125 -241.5978125 126.1028125 -241.1875 125.1875 C-240.00082594 123.00152146 -238.90400887 121.58667406 -237 120 C-236.34 120 -235.68 120 -235 120 C-235 119.34 -235 118.68 -235 118 C-234.34 118 -233.68 118 -233 118 C-233 117.01 -233 116.02 -233 115 C-232.34 115 -231.68 115 -231 115 C-231 114.01 -231 113.02 -231 112 C-230.34 112 -229.68 112 -229 112 C-229 111.34 -229 110.68 -229 110 C-228.34 110 -227.68 110 -227 110 C-227 109.34 -227 108.68 -227 108 C-226.34 108 -225.68 108 -225 108 C-225 107.34 -225 106.68 -225 106 C-224.34 106 -223.68 106 -223 106 C-223 105.34 -223 104.68 -223 104 C-222.34 104 -221.68 104 -221 104 C-221 103.34 -221 102.68 -221 102 C-220.34 102 -219.68 102 -219 102 C-219 101.34 -219 100.68 -219 100 C-218.34 100 -217.68 100 -217 100 C-217 99.34 -217 98.68 -217 98 C-216.34 98 -215.68 98 -215 98 C-215 97.34 -215 96.68 -215 96 C-214.34 96 -213.68 96 -213 96 C-213 95.34 -213 94.68 -213 94 C-212.34 94 -211.68 94 -211 94 C-211 93.34 -211 92.68 -211 92 C-210.34 92 -209.68 92 -209 92 C-209 91.34 -209 90.68 -209 90 C-208.34 90 -207.68 90 -207 90 C-207 89.34 -207 88.68 -207 88 C-204 86 -204 86 -201 86 C-201 85.34 -201 84.68 -201 84 C-200.34 84 -199.68 84 -199 84 C-199 83.34 -199 82.68 -199 82 C-198.34 82 -197.68 82 -197 82 C-197 81.34 -197 80.68 -197 80 C-196.34 80 -195.68 80 -195 80 C-195 79.34 -195 78.68 -195 78 C-194.34 78 -193.68 78 -193 78 C-193 77.34 -193 76.68 -193 76 C-190.4385343 73.70351351 -189.52032428 73 -186 73 C-186 72.34 -186 71.68 -186 71 C-185.34 71 -184.68 71 -184 71 C-184 70.34 -184 69.68 -184 69 C-183.34 69 -182.68 69 -182 69 C-182 68.34 -182 67.68 -182 67 C-180.68 67 -179.36 67 -178 67 C-178 66.34 -178 65.68 -178 65 C-177.34 65 -176.68 65 -176 65 C-176 64.34 -176 63.68 -176 63 C-175.34 63 -174.68 63 -174 63 C-174 62.34 -174 61.68 -174 61 C-172.68 61 -171.36 61 -170 61 C-170 60.34 -170 59.68 -170 59 C-169.34 59 -168.68 59 -168 59 C-168 58.34 -168 57.68 -168 57 C-166.68 57 -165.36 57 -164 57 C-164 56.34 -164 55.68 -164 55 C-163.34 55 -162.68 55 -162 55 C-162 54.34 -162 53.68 -162 53 C-160.68 53 -159.36 53 -158 53 C-158 52.34 -158 51.68 -158 51 C-156.02 50.34 -154.04 49.68 -152 49 C-152 48.34 -152 47.68 -152 47 C-150.68 47 -149.36 47 -148 47 C-148 46.34 -148 45.68 -148 45 C-145 43 -145 43 -142 43 C-142 42.34 -142 41.68 -142 41 C-140.68 41 -139.36 41 -138 41 C-138 40.34 -138 39.68 -138 39 C-136.35 39 -134.7 39 -133 39 C-133 38.34 -133 37.68 -133 37 C-131.68 37 -130.36 37 -129 37 C-129 36.34 -129 35.68 -129 35 C-127.68 35 -126.36 35 -125 35 C-125 34.34 -125 33.68 -125 33 C-123.68 33 -122.36 33 -121 33 C-121 32.34 -121 31.68 -121 31 C-119.68 31 -118.36 31 -117 31 C-117 30.34 -117 29.68 -117 29 C-115.68 29 -114.36 29 -113 29 C-113 28.34 -113 27.68 -113 27 C-111.02 27 -109.04 27 -107 27 C-107 26.01 -107 25.02 -107 24 C-106.35933594 23.81824219 -105.71867188 23.63648438 -105.05859375 23.44921875 C-101.0058429 22.27144466 -97.07245183 21.11635367 -93.25 19.3125 C-89.88744146 17.95454367 -87.58584223 17.7376213 -84 18 C-84 17.34 -84 16.68 -84 16 C-82.02 16 -80.04 16 -78 16 C-78 15.34 -78 14.68 -78 14 C-73.126739 12.4087311 -69.19209404 11.78807779 -64 12 C-64 11.34 -64 10.68 -64 10 C-61.36 10 -58.72 10 -56 10 C-56 9.34 -56 8.68 -56 8 C-53.36 8 -50.72 8 -48 8 C-48 7.34 -48 6.68 -48 6 C-47.14535156 5.93941406 -46.29070312 5.87882813 -45.41015625 5.81640625 C-44.30542969 5.73261719 -43.20070313 5.64882813 -42.0625 5.5625 C-40.96035156 5.48128906 -39.85820312 5.40007813 -38.72265625 5.31640625 C-36.08890097 5.29581916 -36.08890097 5.29581916 -35 4 C-32.98035801 3.92755947 -30.95832876 3.91622812 -28.9375 3.9375 C-27.83277344 3.94652344 -26.72804688 3.95554687 -25.58984375 3.96484375 C-24.73519531 3.97644531 -23.88054687 3.98804688 -23 4 C-23 3.34 -23 2.68 -23 2 C-22.00818726 1.96241577 -22.00818726 1.96241577 -20.99633789 1.92407227 C-18.01817695 1.80846898 -15.0403608 1.68558246 -12.0625 1.5625 C-11.02158203 1.52318359 -9.98066406 1.48386719 -8.90820312 1.44335938 C-7.91884766 1.40146484 -6.92949219 1.35957031 -5.91015625 1.31640625 C-4.53549194 1.26141968 -4.53549194 1.26141968 -3.13305664 1.20532227 C-1.0179272 1.22996136 -1.0179272 1.22996136 0 0 Z " fill="#00227C" transform="translate(367,619)"/>
<path d="M0 0 C86.45323848 -0.01485295 172.90647733 -0.02964318 299.12489319 -0.04234314 C300.61423401 -0.04248259 302.10357483 -0.04262204 303.59291565 -0.04276149 C334.85226849 -0.04568397 366.11162134 -0.04840071 397.37097422 -0.05087968 C413.07280027 -0.0521251 428.77462632 -0.05341008 444.47645237 -0.05473244 C446.84506309 -0.05493169 449.21367382 -0.05512981 451.58228454 -0.05532788 C488.07001367 -0.05838907 524.55774247 -0.06230016 561.04547119 -0.06866455 C561.83042007 -0.06880145 562.61536896 -0.06893835 563.42410417 -0.0690794 C576.08038504 -0.07129186 588.73666589 -0.07357543 601.39294675 -0.07586844 C637.83208394 -0.08246923 674.27122088 -0.08854712 710.71035862 -0.09113979 C711.83357822 -0.0912201 711.83357822 -0.0912201 712.97948912 -0.09130202 C729.41490438 -0.09246759 745.85031965 -0.09336253 762.28573494 -0.09400098 C768.89807116 -0.09426262 775.51040738 -0.09456324 782.12274361 -0.09487724 C782.84645006 -0.09491067 783.5701565 -0.0949441 784.31579345 -0.09497854 C807.66149358 -0.09607626 831.00719181 -0.10035167 854.35289117 -0.10628221 C878.50862803 -0.11240365 902.66436259 -0.11501716 926.82010024 -0.11350138 C940.76159335 -0.11273768 954.70307958 -0.11479618 968.64457146 -0.12079754 C977.93885502 -0.12452703 987.23313404 -0.12467816 996.52741792 -0.12183181 C1001.83507341 -0.12031141 1007.14271582 -0.12042987 1012.45036995 -0.12488318 C1017.26760393 -0.12889462 1022.08481448 -0.12840446 1026.90204806 -0.12413998 C1028.64474818 -0.1234188 1030.38744997 -0.12441659 1032.13014797 -0.12723524 C1034.47640109 -0.13079299 1036.82256864 -0.12831959 1039.16881889 -0.1241985 C1041.12645372 -0.12443247 1041.12645372 -0.12443247 1043.12363672 -0.12467116 C1046 0 1046 0 1047 1 C1048.69428307 1.14530987 1050.39410742 1.22716523 1052.09375 1.28125 C1053.12371094 1.31863281 1054.15367188 1.35601562 1055.21484375 1.39453125 C1056.29894531 1.42933594 1057.38304687 1.46414062 1058.5 1.5 C1060.63556094 1.56856141 1062.77099476 1.64125012 1064.90625 1.71875 C1065.85822266 1.74904297 1066.81019531 1.77933594 1067.79101562 1.81054688 C1070 2 1070 2 1071 3 C1073.16296273 3.20931897 1075.3309471 3.36797069 1077.5 3.5 C1083.88888889 3.88888889 1083.88888889 3.88888889 1085 5 C1087.01594582 5.23427778 1089.038474 5.41336124 1091.0625 5.5625 C1092.71958984 5.68818359 1092.71958984 5.68818359 1094.41015625 5.81640625 C1095.26480469 5.87699219 1096.11945313 5.93757812 1097 6 C1097 6.66 1097 7.32 1097 8 C1099.64 8 1102.28 8 1105 8 C1105 8.66 1105 9.32 1105 10 C1106.299375 9.979375 1107.59875 9.95875 1108.9375 9.9375 C1110.29165633 9.91600546 1111.64756083 9.92851801 1113 10 C1113.33 10.33 1113.66 10.66 1114 11 C1115.7325 11.2475 1115.7325 11.2475 1117.5 11.5 C1121 12 1121 12 1122 13 C1123.03125 13.12375 1124.0625 13.2475 1125.125 13.375 C1129.18406126 14.0296873 1132.27011443 15.30459747 1136 17 C1137.99263591 17.68836513 1139.99041337 18.36281399 1142 19 C1142 19.66 1142 20.32 1142 21 C1143.98 21 1145.96 21 1148 21 C1148 21.66 1148 22.32 1148 23 C1149.98 23 1151.96 23 1154 23 C1154 23.66 1154 24.32 1154 25 C1155.32 25 1156.64 25 1158 25 C1158 25.66 1158 26.32 1158 27 C1158.886875 26.938125 1159.77375 26.87625 1160.6875 26.8125 C1164.40506374 27.02292814 1165.94029641 27.98703711 1169 30 C1171.19130534 30.69579454 1171.19130534 30.69579454 1173 31 C1173 31.66 1173 32.32 1173 33 C1174.32 33 1175.64 33 1177 33 C1177 33.66 1177 34.32 1177 35 C1178.32 35 1179.64 35 1181 35 C1181 35.66 1181 36.32 1181 37 C1182.32 37 1183.64 37 1185 37 C1185 37.66 1185 38.32 1185 39 C1186.32 39 1187.64 39 1189 39 C1189 39.66 1189 40.32 1189 41 C1190.32 41 1191.64 41 1193 41 C1193 41.66 1193 42.32 1193 43 C1193.66 43 1194.32 43 1195 43 C1195 43.66 1195 44.32 1195 45 C1196.32 45 1197.64 45 1199 45 C1199 45.66 1199 46.32 1199 47 C1200.32 47 1201.64 47 1203 47 C1203 47.66 1203 48.32 1203 49 C1203.66 49 1204.32 49 1205 49 C1205 49.66 1205 50.32 1205 51 C1206.32 51 1207.64 51 1209 51 C1209 51.66 1209 52.32 1209 53 C1209.78375 53.144375 1210.5675 53.28875 1211.375 53.4375 C1214 54 1214 54 1216 55 C1216 55.66 1216 56.32 1216 57 C1217.32 57 1218.64 57 1220 57 C1220 57.66 1220 58.32 1220 59 C1220.66 59 1221.32 59 1222 59 C1222 59.66 1222 60.32 1222 61 C1222.61875 61.144375 1223.2375 61.28875 1223.875 61.4375 C1226 62 1226 62 1228 63 C1228 63.66 1228 64.32 1228 65 C1228.66 65 1229.32 65 1230 65 C1230 65.66 1230 66.32 1230 67 C1230.804375 67.268125 1231.60875 67.53625 1232.4375 67.8125 C1233.283125 68.204375 1234.12875 68.59625 1235 69 C1235.33 69.99 1235.66 70.98 1236 72 C1236.66 72 1237.32 72 1238 72 C1238 72.66 1238 73.32 1238 74 C1239.32 74 1240.64 74 1242 74 C1242 74.66 1242 75.32 1242 76 C1242.66 76 1243.32 76 1244 76 C1244 76.66 1244 77.32 1244 78 C1244.66 78 1245.32 78 1246 78 C1246 78.66 1246 79.32 1246 80 C1246.66 80 1247.32 80 1248 80 C1248 80.66 1248 81.32 1248 82 C1248.66 82 1249.32 82 1250 82 C1250 82.66 1250 83.32 1250 84 C1250.66 84 1251.32 84 1252 84 C1252 84.66 1252 85.32 1252 86 C1252.66 86 1253.32 86 1254 86 C1254 86.66 1254 87.32 1254 88 C1254.66 88 1255.32 88 1256 88 C1256 88.66 1256 89.32 1256 90 C1256.66 90 1257.32 90 1258 90 C1258 90.66 1258 91.32 1258 92 C1259.32 92 1260.64 92 1262 92 C1262 92.66 1262 93.32 1262 94 C1262.8353125 94.37125 1262.8353125 94.37125 1263.6875 94.75 C1268.50228748 97.35258782 1271.9372225 100.86617528 1275.3125 105.125 C1276.00988281 105.99382812 1276.70726562 106.86265625 1277.42578125 107.7578125 C1279 110 1279 110 1279 112 C1279.66 112 1280.32 112 1281 112 C1281 112.66 1281 113.32 1281 114 C1281.66 114 1282.32 114 1283 114 C1283 114.66 1283 115.32 1283 116 C1283.66 116 1284.32 116 1285 116 C1285 116.66 1285 117.32 1285 118 C1285.66 118 1286.32 118 1287 118 C1287 118.66 1287 119.32 1287 120 C1287.66 120 1288.32 120 1289 120 C1289 120.99 1289 121.98 1289 123 C1289.66 123 1290.32 123 1291 123 C1291 123.66 1291 124.32 1291 125 C1291.66 125 1292.32 125 1293 125 C1293 125.66 1293 126.32 1293 127 C1293.66 127 1294.32 127 1295 127 C1295 128.32 1295 129.64 1295 131 C1295.66 131 1296.32 131 1297 131 C1297 131.66 1297 132.32 1297 133 C1297.66 133 1298.32 133 1299 133 C1301 136 1301 136 1301 139 C1301.66 139 1302.32 139 1303 139 C1303 139.66 1303 140.32 1303 141 C1303.66 141 1304.32 141 1305 141 C1305 142.32 1305 143.64 1305 145 C1305.66 145 1306.32 145 1307 145 C1307 145.66 1307 146.32 1307 147 C1307.66 147 1308.32 147 1309 147 C1309 147.66 1309 148.32 1309 149 C1309.66 149 1310.32 149 1311 149 C1311 150.32 1311 151.64 1311 153 C1311.99 153.33 1312.98 153.66 1314 154 C1314 154.99 1314 155.98 1314 157 C1314.66 157 1315.32 157 1316 157 C1316.61488281 158.13888672 1316.61488281 158.13888672 1317.2421875 159.30078125 C1317.78101563 160.29464844 1318.31984375 161.28851563 1318.875 162.3125 C1319.67550781 163.79169922 1319.67550781 163.79169922 1320.4921875 165.30078125 C1322.00722126 168.09586458 1322.00722126 168.09586458 1324 171 C1324 171.99 1324 172.98 1324 174 C1324.66 174 1325.32 174 1326 174 C1326 175.32 1326 176.64 1326 178 C1326.66 178 1327.32 178 1328 178 C1328 179.32 1328 180.64 1328 182 C1328.66 182 1329.32 182 1330 182 C1330 183.32 1330 184.64 1330 186 C1330.66 186 1331.32 186 1332 186 C1332 187.32 1332 188.64 1332 190 C1332.66 190 1333.32 190 1334 190 C1334 191.32 1334 192.64 1334 194 C1334.66 194 1335.32 194 1336 194 C1336 195.32 1336 196.64 1336 198 C1336.66 198 1337.32 198 1338 198 C1338 199.32 1338 200.64 1338 202 C1338.66 202 1339.32 202 1340 202 C1341.60355101 205.50776784 1342.22036864 208.14354879 1342 212 C1342.66 212 1343.32 212 1344 212 C1344 213.98 1344 215.96 1344 218 C1344.66 218 1345.32 218 1346 218 C1346 220.31 1346 222.62 1346 225 C1346.66 225 1347.32 225 1348 225 C1348 226.32 1348 227.64 1348 229 C1348.66 229 1349.32 229 1350 229 C1350 230.98 1350 232.96 1350 235 C1350.66 235 1351.32 235 1352 235 C1352 237.64 1352 240.28 1352 243 C1352.66 243 1353.32 243 1354 243 C1354 245.64 1354 248.28 1354 251 C1354.66 251 1355.32 251 1356 251 C1356 253.64 1356 256.28 1356 259 C1356.66 259 1357.32 259 1358 259 C1358 261.64 1358 264.28 1358 267 C1358.66 267 1359.32 267 1360 267 C1360 270.63 1360 274.26 1360 278 C1360.66 278 1361.32 278 1362 278 C1362 282.62 1362 287.24 1362 292 C1362.99 292.33 1363.98 292.66 1365 293 C1367.26733919 306.7775157 1367.27088764 320.38566697 1367.22705078 334.31640625 C1367.2264371 336.88150527 1367.22670681 339.44660462 1367.2277813 342.01170349 C1367.22818481 348.1497791 1367.21967942 354.28778302 1367.20677864 360.42584318 C1367.19228215 367.53845419 1367.19078389 374.65104505 1367.18920898 381.76367188 C1367.17874204 400.50912388 1367.15081953 419.25456285 1367.125 438 C1367.08375 479.91 1367.0425 521.82 1367 565 C1218.17 565 1069.34 565 916 565 C916 491.74 916 418.48 916 343 C507.79 343 99.58 343 -321 343 C-321 307 -321 307 -320 305 C-319.77049681 302.795636 -319.58924067 300.58607827 -319.4375 298.375 C-319.35371094 297.18648438 -319.26992188 295.99796875 -319.18359375 294.7734375 C-319.12300781 293.85820312 -319.06242187 292.94296875 -319 292 C-318.34 292 -317.68 292 -317 292 C-317 287.38 -317 282.76 -317 278 C-316.34 278 -315.68 278 -315 278 C-315.01740234 276.93458984 -315.01740234 276.93458984 -315.03515625 275.84765625 C-315.04417969 274.92855469 -315.05320312 274.00945312 -315.0625 273.0625 C-315.07990234 271.68771484 -315.07990234 271.68771484 -315.09765625 270.28515625 C-315 268 -315 268 -314 267 C-313.76924918 265.65252916 -313.58846937 264.29622435 -313.4375 262.9375 C-313.293125 261.638125 -313.14875 260.33875 -313 259 C-312.34 259 -311.68 259 -311 259 C-311 256.36 -311 253.72 -311 251 C-310.34 251 -309.68 251 -309 251 C-309 248.36 -309 245.72 -309 243 C-308.34 243 -307.68 243 -307 243 C-307 240.36 -307 237.72 -307 235 C-306.34 235 -305.68 235 -305 235 C-305.04125 234.278125 -305.0825 233.55625 -305.125 232.8125 C-304.99078695 229.79270631 -304.24829381 227.73064271 -303 225 C-302.34 225 -301.68 225 -301 225 C-301.061875 224.154375 -301.12375 223.30875 -301.1875 222.4375 C-301.008024 219.14710674 -300.32288851 216.96978654 -298.93359375 214.01171875 C-297.79747336 211.56359322 -296.80684629 209.07136661 -295.8125 206.5625 C-295.46832031 205.69753906 -295.12414062 204.83257812 -294.76953125 203.94140625 C-294.51558594 203.30074219 -294.26164062 202.66007813 -294 202 C-293.34 202 -292.68 202 -292 202 C-292 200.68 -292 199.36 -292 198 C-291.34 198 -290.68 198 -290 198 C-290 196.68 -290 195.36 -290 194 C-289.34 194 -288.68 194 -288 194 C-288 192.68 -288 191.36 -288 190 C-287.34 190 -286.68 190 -286 190 C-286 188.68 -286 187.36 -286 186 C-285.34 186 -284.68 186 -284 186 C-284 184.02 -284 182.04 -284 180 C-283.34 180 -282.68 180 -282 180 C-282 178.68 -282 177.36 -282 176 C-281.34 176 -280.68 176 -280 176 C-280 175.34 -280 174.68 -280 174 C-279.34 174 -278.68 174 -278 174 C-278 172.35 -278 170.7 -278 169 C-277.34 169 -276.68 169 -276 169 C-276 168.01 -276 167.02 -276 166 C-275.34 166 -274.68 166 -274 166 C-274 165.01 -274 164.02 -274 163 C-273.34 163 -272.68 163 -272 163 C-272 161.68 -272 160.36 -272 159 C-271.34 159 -270.68 159 -270 159 C-270 157.68 -270 156.36 -270 155 C-269.34 155 -268.68 155 -268 155 C-268 154.34 -268 153.68 -268 153 C-267.34 153 -266.68 153 -266 153 C-266 151.68 -266 150.36 -266 149 C-265.34 149 -264.68 149 -264 149 C-264 148.34 -264 147.68 -264 147 C-263.34 147 -262.68 147 -262 147 C-262 145.68 -262 144.36 -262 143 C-261.34 143 -260.68 143 -260 143 C-260 142.34 -260 141.68 -260 141 C-259.34 141 -258.68 141 -258 141 C-258 140.34 -258 139.68 -258 139 C-257.34 139 -256.68 139 -256 139 C-256 137.68 -256 136.36 -256 135 C-255.34 135 -254.68 135 -254 135 C-254 134.34 -254 133.68 -254 133 C-253.34 133 -252.68 133 -252 133 C-252 132.34 -252 131.68 -252 131 C-251.34 131 -250.68 131 -250 131 C-250 129.68 -250 128.36 -250 127 C-249.34 127 -248.68 127 -248 127 C-248 126.34 -248 125.68 -248 125 C-247.34 125 -246.68 125 -246 125 C-246 124.34 -246 123.68 -246 123 C-245.34 123 -244.68 123 -244 123 C-243.505 121.515 -243.505 121.515 -243 120 C-242.34 120 -241.68 120 -241 120 C-241 119.34 -241 118.68 -241 118 C-240.34 118 -239.68 118 -239 118 C-239 117.34 -239 116.68 -239 116 C-238.34 116 -237.68 116 -237 116 C-237 115.34 -237 114.68 -237 114 C-236.34 114 -235.68 114 -235 114 C-235 113.34 -235 112.68 -235 112 C-234.34 112 -233.68 112 -233 112 C-232.855625 111.38125 -232.71125 110.7625 -232.5625 110.125 C-232 108 -232 108 -231 106 C-230.34 106 -229.68 106 -229 106 C-229 105.34 -229 104.68 -229 104 C-228.34 104 -227.68 104 -227 104 C-227 103.34 -227 102.68 -227 102 C-226.34 102 -225.68 102 -225 102 C-225 101.34 -225 100.68 -225 100 C-224.34 100 -223.68 100 -223 100 C-223 99.34 -223 98.68 -223 98 C-222.34 98 -221.68 98 -221 98 C-221 97.34 -221 96.68 -221 96 C-220.34 96 -219.68 96 -219 96 C-219 95.34 -219 94.68 -219 94 C-216 92 -216 92 -213 92 C-213 91.34 -213 90.68 -213 90 C-212.34 90 -211.68 90 -211 90 C-211 89.34 -211 88.68 -211 88 C-210.34 88 -209.68 88 -209 88 C-209 87.34 -209 86.68 -209 86 C-208.34 86 -207.68 86 -207 86 C-207 85.34 -207 84.68 -207 84 C-206.34 84 -205.68 84 -205 84 C-205 83.34 -205 82.68 -205 82 C-204.34 82 -203.68 82 -203 82 C-203 81.34 -203 80.68 -203 80 C-202.34 80 -201.68 80 -201 80 C-201 79.34 -201 78.68 -201 78 C-200.34 78 -199.68 78 -199 78 C-199 77.34 -199 76.68 -199 76 C-198.01 76 -197.02 76 -196 76 C-196 75.34 -196 74.68 -196 74 C-194.68 74 -193.36 74 -192 74 C-192 73.34 -192 72.68 -192 72 C-191.34 72 -190.68 72 -190 72 C-190 71.01 -190 70.02 -190 69 C-188.02 68.34 -186.04 67.68 -184 67 C-184 66.34 -184 65.68 -184 65 C-183.34 65 -182.68 65 -182 65 C-182 64.34 -182 63.68 -182 63 C-180.02 62.34 -178.04 61.68 -176 61 C-176 60.34 -176 59.68 -176 59 C-175.34 59 -174.68 59 -174 59 C-174 58.34 -174 57.68 -174 57 C-172.68 57 -171.36 57 -170 57 C-170 56.34 -170 55.68 -170 55 C-167 53 -167 53 -164 53 C-164 52.34 -164 51.68 -164 51 C-162.68 51 -161.36 51 -160 51 C-160 50.34 -160 49.68 -160 49 C-157 47 -157 47 -154 47 C-154 46.34 -154 45.68 -154 45 C-152.68 45 -151.36 45 -150 45 C-150 44.34 -150 43.68 -150 43 C-149.01 43 -148.02 43 -147 43 C-147 42.34 -147 41.68 -147 41 C-143.91190305 39.23537317 -142.76687864 39 -139 39 C-139 38.34 -139 37.68 -139 37 C-137.68 37 -136.36 37 -135 37 C-135 36.34 -135 35.68 -135 35 C-133.68 35 -132.36 35 -131 35 C-131 34.34 -131 33.68 -131 33 C-129.68 33 -128.36 33 -127 33 C-127 32.34 -127 31.68 -127 31 C-125.42032193 30.32471777 -123.83608097 29.66010306 -122.25 29 C-120.92742187 28.443125 -120.92742187 28.443125 -119.578125 27.875 C-117 27 -117 27 -113 27 C-113 26.34 -113 25.68 -113 25 C-111.02 25 -109.04 25 -107 25 C-107 24.34 -107 23.68 -107 23 C-105.35 23 -103.7 23 -102 23 C-102 22.34 -102 21.68 -102 21 C-101.030625 20.690625 -100.06125 20.38125 -99.0625 20.0625 C-96.15934208 19.30476658 -96.15934208 19.30476658 -95 18 C-93.33382885 17.95936168 -91.66611905 17.957279 -90 18 C-90 17.34 -90 16.68 -90 16 C-88.02 16 -86.04 16 -84 16 C-84 15.34 -84 14.68 -84 14 C-81.36 14 -78.72 14 -76 14 C-76 13.34 -76 12.68 -76 12 C-73.36 12 -70.72 12 -68 12 C-68 11.34 -68 10.68 -68 10 C-65.94921875 9.77213542 -63.8984375 9.54427083 -61.84765625 9.31640625 C-59.98859771 9.18113386 -59.98859771 9.18113386 -59 8 C-55.5 7.5 -55.5 7.5 -52 7 C-51.67 6.67 -51.34 6.34 -51 6 C-48.64686445 5.92728259 -46.29166332 5.91629132 -43.9375 5.9375 C-42.64714844 5.94652344 -41.35679687 5.95554688 -40.02734375 5.96484375 C-39.02832031 5.97644531 -38.02929688 5.98804688 -37 6 C-37 5.34 -37 4.68 -37 4 C-33.04 4 -29.08 4 -25 4 C-25 3.34 -25 2.68 -25 2 C-16.75 2 -8.5 2 0 2 C0 1.34 0 0.68 0 0 Z " fill="#00227C" transform="translate(373,170)"/>
<path d="M0 0 C0 0.66 0 1.32 0 2 C0.66 2.33 1.32 2.66 2 3 C-405.55 3 -813.1 3 -1233 3 C-1233 2.67 -1233 2.34 -1233 2 C-1221.56910288 0.95691174 -1210.22658767 0.8613211 -1198.75855637 0.87974548 C-1196.7199326 0.87930863 -1194.68130889 0.8784315 -1192.64268547 0.87715685 C-1187.04750992 0.87492641 -1181.45235362 0.87891961 -1175.85718052 0.88393517 C-1169.76731944 0.88828086 -1163.67745933 0.88678306 -1157.58759713 0.88602352 C-1146.91639754 0.88549085 -1136.24520468 0.88862791 -1125.57400703 0.89425278 C-1114.12749009 0.90026433 -1102.68097552 0.90406765 -1091.23445702 0.9051857 C-1090.51064431 0.90525749 -1089.78683161 0.90532928 -1089.04108519 0.90540324 C-1085.35010223 0.90575814 -1081.65911927 0.90607515 -1077.9681363 0.90637711 C-1052.088815 0.90855534 -1026.20949636 0.91499259 -1000.3301766 0.92398145 C-973.06285312 0.93345169 -945.7955308 0.94052483 -918.52820587 0.94406128 C-917.29527151 0.94422201 -917.29527151 0.94422201 -916.03742939 0.94438599 C-906.8527885 0.9455771 -897.66814761 0.94668904 -888.48350671 0.94776857 C-871.49629941 0.94976802 -854.50909216 0.95210025 -837.52188492 0.95451355 C-836.67197183 0.95463383 -835.82205875 0.95475411 -834.94639072 0.95487804 C-794.50406438 0.96061799 -754.06173883 0.96939048 -713.61941322 0.978864 C-710.93633606 0.97949235 -708.2532589 0.98011917 -705.57018175 0.98074566 C-677.73050342 0.98724949 -649.89082513 0.9939354 -622.05114685 1.00065103 C-595.12295717 1.0071464 -568.19476747 1.01359123 -541.26657774 1.019881 C-538.58517304 1.02050765 -535.90376834 1.02113582 -533.22236365 1.02176414 C-492.82333852 1.0312202 -452.42431347 1.0397695 -412.02528763 1.04548645 C-411.17594582 1.0456071 -410.32660401 1.04572776 -409.45152457 1.04585207 C-392.48115932 1.0482586 -375.51079406 1.05053297 -358.54042876 1.05252722 C-349.36263823 1.05360674 -340.18484771 1.05474247 -331.00705719 1.05593872 C-329.77546864 1.05609842 -329.77546864 1.05609842 -328.51899952 1.05626135 C-301.26707767 1.0598315 -274.01515847 1.06740139 -246.76323808 1.07687083 C-220.95452267 1.08581939 -195.14580827 1.09169547 -169.33709136 1.09380521 C-165.65510998 1.09410825 -161.9731286 1.09444938 -158.29114723 1.0948143 C-157.2085337 1.09491997 -157.2085337 1.09491997 -156.10404918 1.09502777 C-144.69176269 1.09623723 -133.27948017 1.10082832 -121.86719531 1.10684966 C-110.63612582 1.112708 -99.40506022 1.11490609 -88.17398888 1.11350765 C-82.17021498 1.1128668 -76.16645296 1.11380966 -70.16268119 1.1192044 C-64.69407685 1.12408941 -59.22549238 1.12430534 -53.7568871 1.12089865 C-51.797489 1.12047963 -49.8380896 1.12171885 -47.87869401 1.12488325 C-37.18922667 1.1411486 -26.57222754 0.91530225 -15.90399112 0.22062582 C-10.59882211 -0.07918461 -5.31129476 -0.09372873 0 0 Z " fill="#001771" transform="translate(1287,510)"/>
</svg>
